<?xml version="1.0" encoding="utf-8"?>
<!-- Generator: Adobe Illustrator 25.4.1, SVG Export Plug-In . SVG Version: 6.00 Build 0)  -->
<svg version="1.1" id="Capa_1" xmlns="http://www.w3.org/2000/svg" xmlns:xlink="http://www.w3.org/1999/xlink" x="0px" y="0px"
	 viewBox="0 0 612 792" style="enable-background:new 0 0 612 792;" xml:space="preserve">
<style type="text/css">
	.st0{clip-path:url(#SVGID_00000066517376135871472730000001702939263124680835_);fill:#134E5D;}
	.st1{fill:#EAC637;}
</style>
<g>
	<g>
		<defs>
			<rect id="SVGID_1_" x="-1.12" width="613.12" height="792"/>
		</defs>
		<clipPath id="SVGID_00000039118378598316364080000001716043347152553865_">
			<use xlink:href="#SVGID_1_"  style="overflow:visible;"/>
		</clipPath>
		<polygon style="clip-path:url(#SVGID_00000039118378598316364080000001716043347152553865_);fill:#134E5D;" points="-1.17,792 
			-1.17,0 612,0 612,792 -1.17,792 		"/>
	</g>
	<path class="st1" d="M477.22,474.69c0-4.83-1.73-8.97-5.13-12.37c-3.39-3.39-7.54-5.13-12.44-5.13h-21.12v52.79h10.41v-18.33h7.92
		l10.63,18.33h11.24l-11.69-19.91C473.15,487.28,477.22,481.25,477.22,474.69L477.22,474.69z M466.82,474.69
		c0,4.3-3.24,7.84-7.16,7.84h-10.71v-15.61h10.71C463.57,466.92,466.82,470.39,466.82,474.69L466.82,474.69z M412.29,509.98h11.31
		l-18.55-52.79h-12.9l-18.48,52.79h11.24l3.17-9.5h21.04L412.29,509.98L412.29,509.98z M405.88,490.75H391.4l7.24-21.57
		L405.88,490.75L405.88,490.75z M355.72,502.37c4.9-5.05,7.32-11.31,7.32-18.78c0-7.47-2.41-13.73-7.32-18.78
		c-4.83-5.05-10.86-7.62-18.1-7.62h-20.97v52.79h20.97C344.86,509.98,350.9,507.42,355.72,502.37L355.72,502.37z M353.08,483.59
		c0,4.9-1.43,8.83-4.3,11.92c-2.87,3.02-6.56,4.53-11.16,4.53h-10.56v-32.88h10.56c4.6,0,8.3,1.51,11.16,4.6
		C351.65,474.76,353.08,478.68,353.08,483.59L353.08,483.59z M321.44,302.02c0-6.37-5.19-11.55-11.57-11.55
		c-6.37,0-11.55,5.18-11.55,11.55c0,0.52,0.04,1.04,0.12,1.57l-63.31,36.55c-1.08-1.15-2.38-2.07-3.83-2.7v-25.1
		c5.18-1.89,8.76-6.87,8.76-12.53c0-0.12,0-0.24-0.01-0.36l20.46-11.81c2.25,1.63,4.95,2.51,7.77,2.51
		c7.37,0,13.36-5.99,13.36-13.34c0-7.36-5.99-13.34-13.36-13.34c-7.35,0-13.33,5.99-13.33,13.34c0,1.23,0.17,2.43,0.5,3.6
		l-18.6,10.73c-1.49-1.75-3.4-3.08-5.56-3.87v-37.78c2.11-1.47,3.4-3.89,3.4-6.54c0-4.29-3.4-7.8-7.66-7.97l-0.04-0.01l-0.62,0.01
		c-4.23,0.18-7.62,3.7-7.62,7.97c0,2.65,1.29,5.06,3.4,6.54v37.78c-2.15,0.79-4.07,2.12-5.56,3.87l-18.59-10.74
		c0.33-1.17,0.5-2.37,0.5-3.6c0-7.36-5.98-13.34-13.33-13.34c-7.37,0-13.36,5.99-13.36,13.34c0,7.36,5.99,13.34,13.36,13.34
		c2.82,0,5.52-0.88,7.77-2.51l20.46,11.81c0,0.12-0.01,0.24-0.01,0.36c0,5.66,3.58,10.64,8.76,12.53v25.1
		c-1.44,0.63-2.75,1.55-3.82,2.7l-63.31-36.55c0.08-0.53,0.12-1.05,0.12-1.57c0-6.37-5.18-11.55-11.55-11.55
		c-6.38,0-11.57,5.18-11.57,11.55c0,6.37,5.19,11.55,11.57,11.55c2.52,0,4.98-0.85,6.98-2.38l25.8,14.89l-26.8,15.47
		c-1.7-1.34-3.79-2.08-5.98-2.08c-5.38,0-9.76,4.39-9.76,9.77c0,5.38,4.38,9.76,9.76,9.76c5.29,0,9.6-4.22,9.75-9.47l31.83-18.37
		l30.03,17.34c0.19,4.51,3.04,8.49,7.14,10.19v32.37l-29.31-16.93c-0.65-3.75-3.92-6.61-7.85-6.61c-4.41,0-8,3.58-8,7.98
		c0,4.4,3.59,7.98,8,7.98c1.52,0,3-0.45,4.27-1.26l27.82,16.06l-32.11,18.53l-31.88-18.39c0.05-0.38,0.07-0.75,0.07-1.12
		c0-5.39-4.38-9.77-9.76-9.77c-5.38,0-9.76,4.39-9.76,9.77c0,5.38,4.38,9.76,9.76,9.76c1.68,0,3.33-0.45,4.8-1.3l36.76,21.22
		l37.18-21.46v51.1c-5.46,0.98-10.15,3.46-14.07,7.43c-5.2,5.2-7.77,11.77-7.77,19.53c0,7.77,2.56,14.26,7.77,19.53
		c5.2,5.28,11.77,7.92,19.68,7.92c9.65,0,18.18-4.83,22.7-12.44l-8.97-5.2c-2.49,4.6-7.69,7.47-13.73,7.47
		c-5.13,0-9.28-1.58-12.44-4.83c-3.09-3.24-4.68-7.39-4.68-12.45c0-5.13,1.58-9.28,4.68-12.52c3.17-3.24,7.32-4.83,12.44-4.83
		c6.03,0,11.09,2.79,13.73,7.54l8.97-5.2c-4.02-6.77-11.26-11.31-19.54-12.25v-50.81l37.18,21.46l36.76-21.22
		c1.47,0.84,3.12,1.3,4.8,1.3c5.38,0,9.76-4.38,9.76-9.76c0-5.39-4.38-9.77-9.76-9.77c-5.38,0-9.76,4.39-9.76,9.77
		c0,0.37,0.02,0.75,0.07,1.12l-31.88,18.39l-32.11-18.53l27.82-16.06c1.27,0.81,2.75,1.26,4.27,1.26c4.41,0,8-3.58,8-7.98
		c0-4.4-3.59-7.98-8-7.98c-3.93,0-7.2,2.86-7.85,6.61l-29.31,16.93v-32.37c4.09-1.7,6.95-5.68,7.14-10.19l30.03-17.34l31.83,18.37
		c0.15,5.25,4.47,9.47,9.75,9.47c5.38,0,9.76-4.38,9.76-9.76c0-5.39-4.38-9.77-9.76-9.77c-2.19,0-4.28,0.74-5.98,2.08l-26.8-15.47
		l25.8-14.89c2,1.53,4.46,2.38,6.98,2.38C316.25,313.57,321.44,308.39,321.44,302.02L321.44,302.02z M299.16,457.19h-32.28v52.79
		h32.66v-9.96h-22.25v-11.84h19.99v-9.81h-19.99v-11.24h21.87V457.19L299.16,457.19z"/>
</g>
</svg>
