<?xml version="1.0" encoding="UTF-8"?><svg id="Layer_2" xmlns="http://www.w3.org/2000/svg" xmlns:xlink="http://www.w3.org/1999/xlink" viewBox="0 0 600 432.8"><defs><linearGradient id="linear-gradient" x1="300" y1="432.8" x2="300" y2="348.86" gradientUnits="userSpaceOnUse"><stop offset="0" stop-color="#c84138"/><stop offset="1" stop-color="#fb553a"/></linearGradient><linearGradient id="linear-gradient-2" x1="300.68" y1="283.75" x2="300.68" y2="170.61" gradientUnits="userSpaceOnUse"><stop offset="0" stop-color="#35afaf"/><stop offset="1" stop-color="#77d2ce"/></linearGradient><linearGradient id="linear-gradient-3" x1="301.47" y1="160.15" x2="301.47" y2="34.89" gradientUnits="userSpaceOnUse"><stop offset="0" stop-color="#ffc166"/><stop offset="1" stop-color="#ff8c48"/></linearGradient><linearGradient id="linear-gradient-4" x1="292.5" y1="160.15" x2="292.5" y2="0" gradientUnits="userSpaceOnUse"><stop offset="0" stop-color="#ff8361"/><stop offset="1" stop-color="#ff473e"/></linearGradient></defs><g id="Layer_1-2"><g><path d="M0,412.44v-3.39c0-1.48,.74-2.22,2.22-2.22H10.57c1.48,0,2.22,.74,2.22,2.22v2.35c0,3.66,.8,6.29,2.41,7.9,1.61,1.61,4.29,2.41,8.03,2.41h9.01c3.74,0,6.44-.85,8.09-2.55,1.65-1.7,2.48-4.46,2.48-8.29v-3c0-2.78-1.07-4.98-3.2-6.59-2.13-1.61-4.77-2.65-7.9-3.13-3.13-.48-6.57-1.15-10.31-2.02-3.74-.87-7.18-1.87-10.31-3-3.13-1.13-5.77-3.26-7.9-6.4-2.13-3.13-3.2-7.13-3.2-12.01v-5.48c0-6.35,1.81-11.34,5.42-14.95,3.61-3.61,8.59-5.42,14.95-5.42h13.84c6.44,0,11.47,1.81,15.08,5.42,3.61,3.61,5.42,8.6,5.42,14.95v2.87c0,1.48-.74,2.22-2.22,2.22h-8.35c-1.48,0-2.22-.74-2.22-2.22v-1.7c0-3.74-.81-6.42-2.42-8.03-1.61-1.61-4.29-2.41-8.03-2.41h-8.22c-3.74,0-6.42,.85-8.03,2.55-1.61,1.7-2.41,4.59-2.41,8.68v4.05c0,3.92,2.83,6.57,8.49,7.96,2.52,.61,5.29,1.13,8.29,1.57,3,.44,6.03,1.09,9.07,1.96,3.05,.87,5.83,2.02,8.35,3.46,2.52,1.44,4.57,3.61,6.14,6.53,1.57,2.92,2.35,6.46,2.35,10.64v5.09c0,6.35-1.81,11.34-5.42,14.95-3.61,3.61-8.6,5.42-14.95,5.42h-14.62c-6.35,0-11.36-1.81-15.01-5.42-3.66-3.61-5.48-8.59-5.48-14.95Zm143.08-63.58h8.22c1.57,0,2.35,.7,2.35,2.09v61.62c0,6.35-1.81,11.31-5.42,14.88-3.61,3.57-8.6,5.35-14.95,5.35h-14.49c-6.35,0-11.31-1.78-14.88-5.35-3.57-3.57-5.35-8.53-5.35-14.88v-61.49c0-1.48,.74-2.22,2.22-2.22h8.22c1.48,0,2.22,.74,2.22,2.22v60.97c0,6.44,3.13,9.66,9.4,9.66h10.71c6.35,0,9.53-3.22,9.53-9.66v-60.97c0-1.48,.74-2.22,2.22-2.22Zm65.27,83.94h-8.09c-1.48,0-2.22-.74-2.22-2.22v-79.5c0-1.48,.74-2.22,2.22-2.22h7.31c1.39,0,2.35,.48,2.87,1.44l31.59,56.79h.52v-56.01c0-1.48,.74-2.22,2.22-2.22h8.09c1.48,0,2.22,.74,2.22,2.22v79.5c0,1.48-.74,2.22-2.22,2.22h-7.05c-1.39,0-2.53-.7-3.39-2.09l-31.33-56.14h-.52v56.01c0,1.48-.74,2.22-2.22,2.22Zm102.35,0h-8.22c-1.48,0-2.22-.74-2.22-2.22v-79.5c0-1.48,.74-2.22,2.22-2.22h30.55c6.35,0,11.34,1.81,14.95,5.42,3.61,3.61,5.42,8.6,5.42,14.95v10.97c0,10.01-4.13,16.32-12.4,18.93v.52l14.49,30.55c.96,1.74,.39,2.61-1.7,2.61h-8.09c-2.09,0-3.44-.74-4.05-2.22l-13.97-30.03h-13.19c-1.04,0-1.57,.44-1.57,1.31v28.72c0,1.48-.74,2.22-2.22,2.22Zm3.66-42.69h16.58c6.44,0,9.66-3.18,9.66-9.53v-10.97c0-6.44-3.22-9.66-9.66-9.66h-16.58c-.96,0-1.44,.44-1.44,1.31v27.55c0,.87,.48,1.31,1.44,1.31Zm96.08-39.03v79.5c0,1.48-.74,2.22-2.22,2.22h-8.22c-1.48,0-2.22-.74-2.22-2.22v-79.5c0-1.48,.74-2.22,2.22-2.22h8.22c1.48,0,2.22,.74,2.22,2.22Zm44.26,61.36v-3.39c0-1.48,.74-2.22,2.22-2.22h8.36c1.48,0,2.22,.74,2.22,2.22v2.35c0,3.66,.8,6.29,2.41,7.9,1.61,1.61,4.29,2.41,8.03,2.41h9.01c3.74,0,6.44-.85,8.09-2.55,1.65-1.7,2.48-4.46,2.48-8.29v-3c0-2.78-1.07-4.98-3.2-6.59-2.13-1.61-4.77-2.65-7.9-3.13-3.13-.48-6.57-1.15-10.31-2.02-3.74-.87-7.18-1.87-10.31-3-3.13-1.13-5.77-3.26-7.9-6.4-2.13-3.13-3.2-7.13-3.2-12.01v-5.48c0-6.35,1.81-11.34,5.42-14.95,3.61-3.61,8.59-5.42,14.95-5.42h13.84c6.44,0,11.47,1.81,15.08,5.42,3.61,3.61,5.42,8.6,5.42,14.95v2.87c0,1.48-.74,2.22-2.22,2.22h-8.35c-1.48,0-2.22-.74-2.22-2.22v-1.7c0-3.74-.81-6.42-2.42-8.03-1.61-1.61-4.29-2.41-8.03-2.41h-8.22c-3.74,0-6.42,.85-8.03,2.55-1.61,1.7-2.41,4.59-2.41,8.68v4.05c0,3.92,2.83,6.57,8.49,7.96,2.52,.61,5.29,1.13,8.29,1.57,3,.44,6.03,1.09,9.07,1.96,3.05,.87,5.83,2.02,8.35,3.46,2.52,1.44,4.57,3.61,6.14,6.53,1.57,2.92,2.35,6.46,2.35,10.64v5.09c0,6.35-1.81,11.34-5.42,14.95-3.61,3.61-8.6,5.42-14.95,5.42h-14.62c-6.35,0-11.36-1.81-15.01-5.42-3.66-3.61-5.48-8.59-5.48-14.95Zm143.21,20.37h-41.78c-1.48,0-2.22-.74-2.22-2.22v-79.5c0-1.48,.74-2.22,2.22-2.22h41.78c1.39,0,2.09,.74,2.09,2.22v6.66c0,1.48-.7,2.22-2.09,2.22h-29.76c-1.04,0-1.57,.44-1.57,1.31v22.06c0,.87,.52,1.31,1.57,1.31h25.2c1.57,0,2.35,.74,2.35,2.22v6.66c0,1.48-.78,2.22-2.35,2.22h-25.2c-1.04,0-1.57,.44-1.57,1.31v23.24c0,.96,.52,1.44,1.57,1.44h29.76c1.39,0,2.09,.74,2.09,2.22v6.66c0,1.48-.7,2.22-2.09,2.22Z" style="fill:url(#linear-gradient);"/><path d="M307,288.82c-2.09,.1-4.2,.15-6.32,.15s-4.22-.05-6.31-.15c-8.35-.4-7.98-12.9,.37-12.9h11.88c8.36,0,8.72,12.51,.37,12.9Zm116.24-117.34H178.13c-3.94,0-7,3.52-6.4,7.41,.03,.05,.03,.1,.03,.16,.5,3.16,3.21,5.48,6.4,5.48h7.13c3.6,0,6.53,2.92,6.53,6.53s-2.92,6.53-6.53,6.53h-.05c-4.49,0-7.68,4.52-6.03,8.69,.05,.13,.1,.26,.16,.39,.94,2.43,3.34,3.97,5.95,3.97h190.4c3.6,0,6.53,2.92,6.53,6.53s-2.92,6.53-6.53,6.53H199.41c-5.28,0-8.27,5.96-5.21,10.25,.04,.05,.08,.11,.11,.16,1.2,1.68,3.16,2.64,5.22,2.64h88.1c3.6,0,6.53,2.92,6.53,6.53s-2.92,6.53-6.53,6.53h-63.26c-6.14,0-8.82,7.78-3.98,11.55,.07,.05,.13,.1,.2,.16,1.13,.88,2.54,1.34,3.98,1.34h152.24c1.44,0,2.85-.47,3.99-1.35,.07-.05,.13-.1,.2-.16,4.83-3.78,2.15-11.55-3.99-11.55h-63.28c-3.6,0-6.53-2.92-6.53-6.53s2.92-6.53,6.53-6.53h88.12c2.06,0,4.03-.97,5.22-2.65,.04-.05,.07-.11,.11-.16,3.05-4.3,.05-10.24-5.22-10.24h-.15c-3.6,0-6.53-2.92-6.53-6.53s2.92-6.53,6.53-6.53h14.24c2.61,0,5.01-1.54,5.95-3.97,.05-.13,.1-.26,.16-.39,1.64-4.18-1.54-8.69-6.03-8.69H211.39c-3.6,0-6.53-2.92-6.53-6.53s2.92-6.53,6.53-6.53h211.82c3.19,0,5.9-2.32,6.4-5.48,0-.05,0-.1,.03-.16,.6-3.89-2.45-7.41-6.4-7.41Z" style="fill:url(#linear-gradient-2);"/><path d="M212.07,94.75c1.32-2.02,2.71-3.99,4.15-5.9l-11.76-3.42c-.69,.99-1.37,1.99-2.04,3-7.83,11.96-13.35,25.05-16.44,38.65l12.28-1.61c2.91-10.79,7.54-21.16,13.81-30.73Zm-17.19,50.68l-11.65,1.52c-.23,4.38-.22,8.78,.04,13.19h11.55c-.32-4.92-.3-9.84,.06-14.72Zm209.83-19.75l11.31-2.36c-6.83-26.15-22.29-49.02-43.98-65.1l-6.33,9.66c19.14,14.38,32.82,34.64,39,57.79Zm-172.47-53.79c6.72-5.72,14.13-10.6,22.06-14.5l.73-13.02c-13.3,5.66-25.42,13.7-35.8,23.73l13.01,3.78Zm187.16,70.72l-11.37,2.37c.4,5.07,.44,10.14,.11,15.17h11.56c.33-5.82,.23-11.68-.3-17.54ZM277.3,37.4c-.78,.16-1.56,.33-2.34,.51l-.68,12.04c1.78-.47,3.57-.89,5.37-1.27,23.68-4.94,48.01-1.74,69.4,8.91l6.36-9.71c-23.99-12.3-51.42-16.06-78.11-10.49Z" style="fill:url(#linear-gradient-3);"/><path d="M403.18,54.26c1.41-2.15,4.29-2.75,6.43-1.34,2.15,1.41,2.75,4.29,1.34,6.44-1.41,2.15-4.29,2.75-6.44,1.34-2.15-1.4-2.75-4.29-1.34-6.43ZM216.39,28.6c2.15,1.41,5.03,.81,6.44-1.34,1.41-2.15,.8-5.03-1.34-6.44-2.15-1.41-5.03-.8-6.43,1.34-1.41,2.15-.8,5.03,1.34,6.43Zm91.19-14.73c3.49,2.29,8.17,1.31,10.46-2.18,2.29-3.49,1.31-8.17-2.18-10.46-3.49-2.28-8.17-1.3-10.46,2.18-2.29,3.49-1.31,8.17,2.18,10.46ZM167.26,112.66c3.49,2.29,8.17,1.31,10.46-2.18,2.29-3.49,1.31-8.17-2.18-10.46-3.49-2.28-8.17-1.3-10.46,2.18-2.29,3.49-1.31,8.17,2.18,10.46Zm271.32,9.06c-4.41-2.89-10.34-1.66-13.22,2.75-.61,.93-1.03,1.91-1.29,2.93l-24.78,5.16c-.91-1.49-2.15-2.8-3.71-3.81-4.92-3.23-11.31-2.45-15.32,1.54l-34.77-16.52c1.44-6.29-.38-13-4.97-17.69l31.79-48.54c5.25,1.36,10.99-.68,14.13-5.46,3.92-5.99,2.25-14.04-3.75-17.97s-14.05-2.25-17.97,3.75c-3.13,4.78-2.7,10.86,.64,15.12l-31.79,48.55c-8.23-3.12-17.81-.23-22.83,7.43-.42,.65-.79,1.31-1.13,1.99l-43.12-12.55,3.19-56.76c2.47-.78,4.7-2.39,6.23-4.73,3.53-5.38,2.03-12.61-3.36-16.14-5.39-3.53-12.62-2.02-16.15,3.37-3.52,5.38-2.02,12.61,3.37,16.14,.53,.35,1.08,.64,1.64,.9l-3.08,54.85-75.45-21.94c-.22-7.1-6.03-12.79-13.19-12.79s-13.21,5.91-13.21,13.21,5.91,13.21,13.21,13.21c4.54,0,8.54-2.29,10.92-5.77l77.25,22.46-.66,11.8c-4.51,.84-8.68,3.44-11.39,7.58-2.31,3.53-3.17,7.59-2.73,11.49l-76.66,10.05c-.99-1.77-2.4-3.33-4.21-4.51-6-3.93-14.05-2.25-17.97,3.74-3.93,6-2.25,14.05,3.74,17.97,6,3.93,14.04,2.25,17.97-3.74,1.13-1.72,1.79-3.6,2.02-5.51l77.96-10.22c1.26,1.86,2.91,3.51,4.91,4.83,5.71,3.74,12.8,3.69,18.32,.47l13.92,14.37c-1.21,2.35-1.63,4.93-1.33,7.42h25.97l70.75-14.75c.9,1.48,2.15,2.8,3.71,3.81,5.65,3.71,13.23,2.13,16.93-3.53,1.02-1.56,1.64-3.25,1.88-4.98l24.78-5.17c.64,.83,1.42,1.56,2.34,2.17,4.42,2.88,10.33,1.65,13.23-2.76,2.89-4.41,1.65-10.33-2.76-13.22Zm-168.67-12.96c-1.41-.93-2.91-1.62-4.45-2.09l.55-9.89,41.61,12.1c0,.12,0,.23,0,.34l-31.53,6.58c-1.33-2.77-3.41-5.23-6.17-7.04Zm19.13,38.2l-13.92-14.37c1.69-2.7,2.55-5.67,2.65-8.65l31.53-6.57c.91,2,2.17,3.87,3.75,5.49l-15.23,23.26c-2.96-.76-6.07-.44-8.78,.84Zm16.68,5.11c-.28-.48-.6-.95-.95-1.4l15.23-23.25c7.76,2.94,16.72,.55,21.93-6.16l34.03,16.17-70.24,14.64Z" style="fill:url(#linear-gradient-4);"/></g></g></svg>